# xmcd CD database file
#
# Track frame offsets:
#	150
#	23150
#	47978
#	73591
#	95015
#	122967
#	148398
#	167560
#	186419
#	223882
#
# Disc length: 3368 seconds
#
# Revision: 1
# Processed by: cddbd v1.5.1PL0 Copyright (c) Steve Scherf et al.
# Submitted via: CDex 1.51
#
DISCID=a20d260a
DTITLE=中島みゆき - 大銀幕
DYEAR=1999
DGENRE=Oldies
TTITLE0=糸
TTITLE1=命の別名
TTITLE2=たかが愛
TTITLE3=愛情物語
TTITLE4=世情
TTITLE5=with
TTITLE6=私たちは春の中で
TTITLE7=眠らないで
TTITLE8=二隻の舟
TTITLE9=瞬きもせず
EXTD=YEAR: 1999
EXTT0=
EXTT1=
EXTT2=
EXTT3=
EXTT4=
EXTT5=
EXTT6=
EXTT7=
EXTT8=
EXTT9=
PLAYORDER=
